<?xml version="1.0" encoding="UTF-8" standalone="no"?>
<!DOCTYPE svg PUBLIC "-//W3C//DTD SVG 1.1//EN" "http://www.w3.org/Graphics/SVG/1.1/DTD/svg11.dtd">
<svg t="1623218945418" class="icon" viewBox="0 0 1024 1024" version="1.1" xmlns="http://www.w3.org/2000/svg" p-id="2730" xmlns:xlink="http://www.w3.org/1999/xlink" width="200" height="200"><defs><style type="text/css"/></defs><path d="M40.96 184.32c0-45.056 36.864-81.92 81.92-81.92h256c45.056 0 81.92 36.864 81.92 81.92v20.48c0 22.528 18.432 40.96 40.96 40.96h296.96c45.056 0 81.92 36.864 81.92 81.92v20.48H274.432c-45.056 0-88.064 36.864-96.256 79.872L88.064 921.6c-26.624 0-47.104-36.864-47.104-81.92V184.32z m182.272 264.192c6.144-32.768 38.912-59.392 73.728-59.392h634.88c34.816 0 55.296 26.624 49.152 59.392L901.12 860.16c-6.144 32.768-38.912 59.392-73.728 59.392h-696.32l92.16-471.04z" p-id="2731"/></svg>